<mxfile host="app.diagrams.net" agent="Mozilla/5.0 (Windows NT 10.0; Win64; x64) AppleWebKit/537.36 (KHTML, like Gecko) Chrome/131.0.0.0 Safari/537.36" version="24.9.0">
  <diagram name="PÃ¡gina-1" id="BWKmwLroQX6Gjoo0kF_z">
    <mxGraphModel dx="1195" dy="643" grid="1" gridSize="10" guides="1" tooltips="1" connect="1" arrows="1" fold="1" page="0" pageScale="1" pageWidth="827" pageHeight="1169" math="0" shadow="0">
      <root>
        <mxCell id="0" />
        <mxCell id="1" parent="0" />
        <mxCell id="saF7w043Sqg9dMnj_X5P-2" value="" style="rounded=0;whiteSpace=wrap;html=1;dashed=1;" vertex="1" parent="1">
          <mxGeometry x="10" y="70" width="300" height="200" as="geometry" />
        </mxCell>
        <mxCell id="saF7w043Sqg9dMnj_X5P-6" value="" style="rounded=0;whiteSpace=wrap;html=1;dashed=1;" vertex="1" parent="1">
          <mxGeometry x="10" y="70" width="140" height="30" as="geometry" />
        </mxCell>
        <mxCell id="saF7w043Sqg9dMnj_X5P-8" value="&lt;h1 style=&quot;margin-top: 0px;&quot;&gt;&lt;font style=&quot;font-size: 11px;&quot;&gt;Step 1: Dataset selection&lt;/font&gt;&lt;/h1&gt;" style="text;html=1;whiteSpace=wrap;overflow=hidden;rounded=0;" vertex="1" parent="1">
          <mxGeometry x="10" y="60" width="140" height="40" as="geometry" />
        </mxCell>
        <mxCell id="saF7w043Sqg9dMnj_X5P-9" value="" style="ellipse;whiteSpace=wrap;html=1;aspect=fixed;fillColor=#000000;" vertex="1" parent="1">
          <mxGeometry x="20" y="175" width="30" height="30" as="geometry" />
        </mxCell>
        <mxCell id="saF7w043Sqg9dMnj_X5P-12" value="" style="shape=datastore;whiteSpace=wrap;html=1;" vertex="1" parent="1">
          <mxGeometry x="90" y="200" width="80" height="50" as="geometry" />
        </mxCell>
        <mxCell id="saF7w043Sqg9dMnj_X5P-15" value="" style="endArrow=classic;html=1;rounded=0;entryX=0;entryY=0.5;entryDx=0;entryDy=0;exitX=1;exitY=0.5;exitDx=0;exitDy=0;" edge="1" parent="1" source="saF7w043Sqg9dMnj_X5P-9" target="saF7w043Sqg9dMnj_X5P-11">
          <mxGeometry width="50" height="50" relative="1" as="geometry">
            <mxPoint x="60" y="170" as="sourcePoint" />
            <mxPoint x="110" y="120" as="targetPoint" />
          </mxGeometry>
        </mxCell>
        <mxCell id="saF7w043Sqg9dMnj_X5P-16" value="" style="endArrow=classic;html=1;rounded=0;entryX=0;entryY=0.7;entryDx=0;entryDy=0;exitX=1;exitY=0.5;exitDx=0;exitDy=0;" edge="1" parent="1" source="saF7w043Sqg9dMnj_X5P-9" target="saF7w043Sqg9dMnj_X5P-12">
          <mxGeometry width="50" height="50" relative="1" as="geometry">
            <mxPoint x="70" y="180" as="sourcePoint" />
            <mxPoint x="110" y="160" as="targetPoint" />
          </mxGeometry>
        </mxCell>
        <mxCell id="saF7w043Sqg9dMnj_X5P-18" value="&lt;h1 style=&quot;margin-top: 0px;&quot;&gt;&lt;font style=&quot;font-size: 11px; font-weight: normal;&quot;&gt;SecReq&lt;/font&gt;&lt;/h1&gt;" style="text;html=1;whiteSpace=wrap;overflow=hidden;rounded=0;align=center;" vertex="1" parent="1">
          <mxGeometry x="90" y="205" width="80" height="40" as="geometry" />
        </mxCell>
        <mxCell id="saF7w043Sqg9dMnj_X5P-32" value="" style="group" vertex="1" connectable="0" parent="1">
          <mxGeometry x="90" y="130" width="80" height="50" as="geometry" />
        </mxCell>
        <mxCell id="saF7w043Sqg9dMnj_X5P-11" value="" style="shape=datastore;whiteSpace=wrap;html=1;" vertex="1" parent="saF7w043Sqg9dMnj_X5P-32">
          <mxGeometry width="80" height="50" as="geometry" />
        </mxCell>
        <mxCell id="saF7w043Sqg9dMnj_X5P-17" value="&lt;h1 style=&quot;margin-top: 0px;&quot;&gt;&lt;font style=&quot;font-size: 11px; font-weight: normal;&quot;&gt;Promise_exp&lt;/font&gt;&lt;/h1&gt;" style="text;html=1;whiteSpace=wrap;overflow=hidden;rounded=0;align=center;" vertex="1" parent="saF7w043Sqg9dMnj_X5P-32">
          <mxGeometry y="5" width="80" height="40" as="geometry" />
        </mxCell>
        <mxCell id="saF7w043Sqg9dMnj_X5P-39" value="" style="rounded=0;whiteSpace=wrap;html=1;dashed=1;" vertex="1" parent="1">
          <mxGeometry x="320" y="70" width="370" height="200" as="geometry" />
        </mxCell>
        <mxCell id="saF7w043Sqg9dMnj_X5P-40" value="" style="rounded=0;whiteSpace=wrap;html=1;dashed=1;" vertex="1" parent="1">
          <mxGeometry x="320" y="70" width="140" height="30" as="geometry" />
        </mxCell>
        <mxCell id="saF7w043Sqg9dMnj_X5P-41" value="&lt;h1 style=&quot;margin-top: 0px;&quot;&gt;&lt;font style=&quot;font-size: 11px;&quot;&gt;Step 2: Model Selection&lt;/font&gt;&lt;/h1&gt;" style="text;html=1;whiteSpace=wrap;overflow=hidden;rounded=0;" vertex="1" parent="1">
          <mxGeometry x="323" y="61" width="140" height="40" as="geometry" />
        </mxCell>
        <mxCell id="saF7w043Sqg9dMnj_X5P-44" value="" style="endArrow=classic;html=1;rounded=0;entryX=0;entryY=0.5;entryDx=0;entryDy=0;exitX=1;exitY=0.5;exitDx=0;exitDy=0;" edge="1" parent="1" target="saF7w043Sqg9dMnj_X5P-51">
          <mxGeometry width="50" height="50" relative="1" as="geometry">
            <mxPoint x="400" y="195" as="sourcePoint" />
            <mxPoint x="450" y="120" as="targetPoint" />
          </mxGeometry>
        </mxCell>
        <mxCell id="saF7w043Sqg9dMnj_X5P-53" style="edgeStyle=orthogonalEdgeStyle;rounded=0;orthogonalLoop=1;jettySize=auto;html=1;exitX=1;exitY=0.5;exitDx=0;exitDy=0;" edge="1" parent="1" target="saF7w043Sqg9dMnj_X5P-48">
          <mxGeometry relative="1" as="geometry">
            <mxPoint x="520" y="160" as="sourcePoint" />
          </mxGeometry>
        </mxCell>
        <mxCell id="saF7w043Sqg9dMnj_X5P-57" value="" style="group" vertex="1" connectable="0" parent="1">
          <mxGeometry x="210" y="130" width="80" height="50" as="geometry" />
        </mxCell>
        <mxCell id="saF7w043Sqg9dMnj_X5P-31" value="" style="shape=datastore;whiteSpace=wrap;html=1;" vertex="1" parent="saF7w043Sqg9dMnj_X5P-57">
          <mxGeometry width="80" height="50" as="geometry" />
        </mxCell>
        <mxCell id="saF7w043Sqg9dMnj_X5P-35" value="&lt;h1 style=&quot;margin-top: 0px;&quot;&gt;&lt;span style=&quot;font-size: 11px; font-weight: 400;&quot;&gt;Security subset&lt;/span&gt;&lt;/h1&gt;" style="text;html=1;whiteSpace=wrap;overflow=hidden;rounded=0;align=center;" vertex="1" parent="saF7w043Sqg9dMnj_X5P-57">
          <mxGeometry y="5" width="80" height="40" as="geometry" />
        </mxCell>
        <mxCell id="saF7w043Sqg9dMnj_X5P-58" value="" style="edgeStyle=orthogonalEdgeStyle;rounded=0;orthogonalLoop=1;jettySize=auto;html=1;" edge="1" parent="1" source="saF7w043Sqg9dMnj_X5P-17" target="saF7w043Sqg9dMnj_X5P-35">
          <mxGeometry relative="1" as="geometry" />
        </mxCell>
        <mxCell id="saF7w043Sqg9dMnj_X5P-186" style="edgeStyle=orthogonalEdgeStyle;rounded=0;orthogonalLoop=1;jettySize=auto;html=1;" edge="1" parent="1" source="saF7w043Sqg9dMnj_X5P-62">
          <mxGeometry relative="1" as="geometry">
            <mxPoint x="570" y="197.5" as="targetPoint" />
          </mxGeometry>
        </mxCell>
        <mxCell id="saF7w043Sqg9dMnj_X5P-62" value="Filter Criteria" style="shape=process;whiteSpace=wrap;html=1;backgroundOutline=1;" vertex="1" parent="1">
          <mxGeometry x="381" y="180" width="110" height="35" as="geometry" />
        </mxCell>
        <mxCell id="saF7w043Sqg9dMnj_X5P-66" value="" style="group" vertex="1" connectable="0" parent="1">
          <mxGeometry x="330" y="230" width="216" height="30" as="geometry" />
        </mxCell>
        <mxCell id="saF7w043Sqg9dMnj_X5P-63" value="Scalability" style="rounded=1;whiteSpace=wrap;html=1;" vertex="1" parent="saF7w043Sqg9dMnj_X5P-66">
          <mxGeometry width="66" height="30" as="geometry" />
        </mxCell>
        <mxCell id="saF7w043Sqg9dMnj_X5P-64" value="Availability" style="rounded=1;whiteSpace=wrap;html=1;" vertex="1" parent="saF7w043Sqg9dMnj_X5P-66">
          <mxGeometry x="72" width="68" height="30" as="geometry" />
        </mxCell>
        <mxCell id="saF7w043Sqg9dMnj_X5P-65" value="Popularity" style="rounded=1;whiteSpace=wrap;html=1;" vertex="1" parent="saF7w043Sqg9dMnj_X5P-66">
          <mxGeometry x="146" width="70" height="30" as="geometry" />
        </mxCell>
        <mxCell id="saF7w043Sqg9dMnj_X5P-72" value="" style="endArrow=none;html=1;rounded=0;entryX=0.5;entryY=0;entryDx=0;entryDy=0;exitX=0.5;exitY=1;exitDx=0;exitDy=0;" edge="1" parent="1" source="saF7w043Sqg9dMnj_X5P-62" target="saF7w043Sqg9dMnj_X5P-64">
          <mxGeometry width="50" height="50" relative="1" as="geometry">
            <mxPoint x="360" y="320" as="sourcePoint" />
            <mxPoint x="410" y="270" as="targetPoint" />
          </mxGeometry>
        </mxCell>
        <mxCell id="saF7w043Sqg9dMnj_X5P-73" value="" style="endArrow=none;html=1;rounded=0;exitX=0.5;exitY=0;exitDx=0;exitDy=0;entryX=0.5;entryY=1;entryDx=0;entryDy=0;" edge="1" parent="1" source="saF7w043Sqg9dMnj_X5P-63" target="saF7w043Sqg9dMnj_X5P-62">
          <mxGeometry width="50" height="50" relative="1" as="geometry">
            <mxPoint x="360" y="320" as="sourcePoint" />
            <mxPoint x="460" y="170" as="targetPoint" />
          </mxGeometry>
        </mxCell>
        <mxCell id="saF7w043Sqg9dMnj_X5P-74" value="" style="endArrow=none;html=1;rounded=0;exitX=0.5;exitY=0;exitDx=0;exitDy=0;entryX=0.5;entryY=1;entryDx=0;entryDy=0;" edge="1" parent="1" source="saF7w043Sqg9dMnj_X5P-65" target="saF7w043Sqg9dMnj_X5P-62">
          <mxGeometry width="50" height="50" relative="1" as="geometry">
            <mxPoint x="440" y="230" as="sourcePoint" />
            <mxPoint x="470" y="180" as="targetPoint" />
          </mxGeometry>
        </mxCell>
        <mxCell id="saF7w043Sqg9dMnj_X5P-80" value="" style="group" vertex="1" connectable="0" parent="1">
          <mxGeometry x="411" y="110" width="50" height="50" as="geometry" />
        </mxCell>
        <mxCell id="saF7w043Sqg9dMnj_X5P-81" value="" style="shape=datastore;whiteSpace=wrap;html=1;" vertex="1" parent="saF7w043Sqg9dMnj_X5P-80">
          <mxGeometry width="50" height="50" as="geometry" />
        </mxCell>
        <mxCell id="saF7w043Sqg9dMnj_X5P-82" value="&lt;h1 style=&quot;margin-top: 0px;&quot;&gt;&lt;span style=&quot;font-size: 11px; font-weight: 400;&quot;&gt;LLMs&lt;/span&gt;&lt;/h1&gt;" style="text;html=1;whiteSpace=wrap;overflow=hidden;rounded=0;align=center;" vertex="1" parent="saF7w043Sqg9dMnj_X5P-80">
          <mxGeometry y="5" width="50" height="40" as="geometry" />
        </mxCell>
        <mxCell id="saF7w043Sqg9dMnj_X5P-83" style="edgeStyle=orthogonalEdgeStyle;rounded=0;orthogonalLoop=1;jettySize=auto;html=1;" edge="1" parent="1" source="saF7w043Sqg9dMnj_X5P-82" target="saF7w043Sqg9dMnj_X5P-62">
          <mxGeometry relative="1" as="geometry" />
        </mxCell>
        <mxCell id="saF7w043Sqg9dMnj_X5P-103" value="" style="group" vertex="1" connectable="0" parent="1">
          <mxGeometry x="591" y="118" width="60" height="50" as="geometry" />
        </mxCell>
        <mxCell id="saF7w043Sqg9dMnj_X5P-104" value="" style="shape=datastore;whiteSpace=wrap;html=1;" vertex="1" parent="saF7w043Sqg9dMnj_X5P-103">
          <mxGeometry width="50" height="40" as="geometry" />
        </mxCell>
        <mxCell id="saF7w043Sqg9dMnj_X5P-105" value="&lt;h1 style=&quot;margin-top: 0px;&quot;&gt;&lt;span style=&quot;font-size: 11px; font-weight: 400;&quot;&gt;Mistral&lt;/span&gt;&lt;/h1&gt;" style="text;html=1;whiteSpace=wrap;overflow=hidden;rounded=0;align=center;" vertex="1" parent="saF7w043Sqg9dMnj_X5P-103">
          <mxGeometry x="-3" width="60" height="40" as="geometry" />
        </mxCell>
        <mxCell id="saF7w043Sqg9dMnj_X5P-182" value="" style="group" vertex="1" connectable="0" parent="1">
          <mxGeometry x="586" y="163" width="60" height="41" as="geometry" />
        </mxCell>
        <mxCell id="saF7w043Sqg9dMnj_X5P-110" value="" style="shape=datastore;whiteSpace=wrap;html=1;" vertex="1" parent="saF7w043Sqg9dMnj_X5P-182">
          <mxGeometry x="5" y="1" width="50" height="40" as="geometry" />
        </mxCell>
        <mxCell id="saF7w043Sqg9dMnj_X5P-111" value="&lt;h1 style=&quot;margin-top: 0px;&quot;&gt;&lt;span style=&quot;font-size: 11px; font-weight: 400;&quot;&gt;Llama 3&lt;/span&gt;&lt;/h1&gt;" style="text;html=1;whiteSpace=wrap;overflow=hidden;rounded=0;align=center;" vertex="1" parent="saF7w043Sqg9dMnj_X5P-182">
          <mxGeometry width="60" height="40" as="geometry" />
        </mxCell>
        <mxCell id="saF7w043Sqg9dMnj_X5P-183" value="" style="group" vertex="1" connectable="0" parent="1">
          <mxGeometry x="589" y="209" width="60" height="40" as="geometry" />
        </mxCell>
        <mxCell id="saF7w043Sqg9dMnj_X5P-87" value="" style="shape=datastore;whiteSpace=wrap;html=1;" vertex="1" parent="saF7w043Sqg9dMnj_X5P-183">
          <mxGeometry x="3" width="50" height="40" as="geometry" />
        </mxCell>
        <mxCell id="saF7w043Sqg9dMnj_X5P-88" value="&lt;h1 style=&quot;margin-top: 0px;&quot;&gt;&lt;span style=&quot;font-size: 11px; font-weight: 400;&quot;&gt;Gemma&lt;/span&gt;&lt;/h1&gt;" style="text;html=1;whiteSpace=wrap;overflow=hidden;rounded=0;align=center;" vertex="1" parent="saF7w043Sqg9dMnj_X5P-183">
          <mxGeometry width="60" height="40" as="geometry" />
        </mxCell>
        <mxCell id="saF7w043Sqg9dMnj_X5P-185" value="&lt;span style=&quot;font-weight: normal;&quot;&gt;Selected LLMs&lt;/span&gt;" style="swimlane;whiteSpace=wrap;html=1;" vertex="1" parent="1">
          <mxGeometry x="565" y="83" width="100" height="177" as="geometry">
            <mxRectangle x="565" y="83" width="114" height="26" as="alternateBounds" />
          </mxGeometry>
        </mxCell>
        <mxCell id="saF7w043Sqg9dMnj_X5P-194" value="" style="group" vertex="1" connectable="0" parent="1">
          <mxGeometry x="700" y="70" width="260" height="360" as="geometry" />
        </mxCell>
        <mxCell id="saF7w043Sqg9dMnj_X5P-115" value="" style="rounded=0;whiteSpace=wrap;html=1;dashed=1;" vertex="1" parent="saF7w043Sqg9dMnj_X5P-194">
          <mxGeometry width="260" height="360" as="geometry" />
        </mxCell>
        <mxCell id="saF7w043Sqg9dMnj_X5P-116" value="" style="rounded=0;whiteSpace=wrap;html=1;dashed=1;" vertex="1" parent="saF7w043Sqg9dMnj_X5P-194">
          <mxGeometry width="154.07407407407408" height="32.72727272727273" as="geometry" />
        </mxCell>
        <mxCell id="saF7w043Sqg9dMnj_X5P-195" style="edgeStyle=orthogonalEdgeStyle;rounded=0;orthogonalLoop=1;jettySize=auto;html=1;exitX=1;exitY=0.5;exitDx=0;exitDy=0;" edge="1" parent="saF7w043Sqg9dMnj_X5P-194" source="saF7w043Sqg9dMnj_X5P-143">
          <mxGeometry relative="1" as="geometry">
            <mxPoint x="130" y="100.36363636363636" as="targetPoint" />
          </mxGeometry>
        </mxCell>
        <mxCell id="saF7w043Sqg9dMnj_X5P-143" value="Manual Seletion of techniques" style="rounded=1;whiteSpace=wrap;html=1;" vertex="1" parent="saF7w043Sqg9dMnj_X5P-194">
          <mxGeometry x="15.407407407407407" y="73.0909090909091" width="80.88888888888889" height="54.54545454545455" as="geometry" />
        </mxCell>
        <mxCell id="saF7w043Sqg9dMnj_X5P-170" value="Prompts" style="rhombus;whiteSpace=wrap;html=1;strokeColor=#000000;" vertex="1" parent="saF7w043Sqg9dMnj_X5P-194">
          <mxGeometry x="15.409629629629631" y="252.97732620320852" width="86.66666666666666" height="65.45454545454545" as="geometry" />
        </mxCell>
        <mxCell id="saF7w043Sqg9dMnj_X5P-191" value="" style="group" vertex="1" connectable="0" parent="saF7w043Sqg9dMnj_X5P-194">
          <mxGeometry x="131.92592592592592" y="65.45454545454545" width="92.44444444444444" height="250.9090909090909" as="geometry" />
        </mxCell>
        <mxCell id="saF7w043Sqg9dMnj_X5P-144" value="&lt;span style=&quot;font-weight: normal;&quot;&gt;Techniques&lt;/span&gt;" style="swimlane;whiteSpace=wrap;html=1;swimlaneLine=1;" vertex="1" parent="saF7w043Sqg9dMnj_X5P-191">
          <mxGeometry width="92.44444444444444" height="250.9090909090909" as="geometry">
            <mxRectangle x="590" y="120" width="120" height="30" as="alternateBounds" />
          </mxGeometry>
        </mxCell>
        <mxCell id="saF7w043Sqg9dMnj_X5P-161" value="" style="group" vertex="1" connectable="0" parent="saF7w043Sqg9dMnj_X5P-144">
          <mxGeometry x="17.59259259259261" y="32.72727272727273" width="67.4074074074074" height="54.54545454545455" as="geometry" />
        </mxCell>
        <mxCell id="saF7w043Sqg9dMnj_X5P-162" value="" style="shape=datastore;whiteSpace=wrap;html=1;" vertex="1" parent="saF7w043Sqg9dMnj_X5P-161">
          <mxGeometry width="56.17283950617284" height="43.63636363636363" as="geometry" />
        </mxCell>
        <mxCell id="saF7w043Sqg9dMnj_X5P-163" value="&lt;h1 style=&quot;margin-top: 0px;&quot;&gt;&lt;span style=&quot;font-size: 11px; font-weight: 400;&quot;&gt;CoT&lt;/span&gt;&lt;/h1&gt;" style="text;html=1;whiteSpace=wrap;overflow=hidden;rounded=0;align=center;" vertex="1" parent="saF7w043Sqg9dMnj_X5P-161">
          <mxGeometry x="-3.3703703703703702" y="2" width="61.148148148148145" height="43.63636363636363" as="geometry" />
        </mxCell>
        <mxCell id="saF7w043Sqg9dMnj_X5P-164" value="" style="group" vertex="1" connectable="0" parent="saF7w043Sqg9dMnj_X5P-144">
          <mxGeometry x="17.59259259259261" y="141.8181818181818" width="67.4074074074074" height="54.54545454545455" as="geometry" />
        </mxCell>
        <mxCell id="saF7w043Sqg9dMnj_X5P-165" value="" style="shape=datastore;whiteSpace=wrap;html=1;" vertex="1" parent="saF7w043Sqg9dMnj_X5P-164">
          <mxGeometry width="56.17283950617284" height="43.63636363636363" as="geometry" />
        </mxCell>
        <mxCell id="saF7w043Sqg9dMnj_X5P-166" value="&lt;h1 style=&quot;margin-top: 0px;&quot;&gt;&lt;span style=&quot;font-size: 11px; font-weight: 400;&quot;&gt;Few-shot&lt;/span&gt;&lt;/h1&gt;" style="text;html=1;whiteSpace=wrap;overflow=hidden;rounded=0;align=center;" vertex="1" parent="saF7w043Sqg9dMnj_X5P-164">
          <mxGeometry x="-3.3703703703703702" width="61.148148148148145" height="43.63636363636363" as="geometry" />
        </mxCell>
        <mxCell id="saF7w043Sqg9dMnj_X5P-155" value="" style="group" vertex="1" connectable="0" parent="saF7w043Sqg9dMnj_X5P-191">
          <mxGeometry x="17.59259259259261" y="87.27272727272727" width="67.4074074074074" height="54.54545454545455" as="geometry" />
        </mxCell>
        <mxCell id="saF7w043Sqg9dMnj_X5P-156" value="" style="shape=datastore;whiteSpace=wrap;html=1;" vertex="1" parent="saF7w043Sqg9dMnj_X5P-155">
          <mxGeometry width="56.17283950617284" height="43.63636363636363" as="geometry" />
        </mxCell>
        <mxCell id="saF7w043Sqg9dMnj_X5P-157" value="&lt;h1 style=&quot;margin-top: 0px;&quot;&gt;&lt;span style=&quot;font-size: 11px; font-weight: 400;&quot;&gt;Zero-shot&lt;/span&gt;&lt;/h1&gt;" style="text;html=1;whiteSpace=wrap;overflow=hidden;rounded=0;align=center;" vertex="1" parent="saF7w043Sqg9dMnj_X5P-155">
          <mxGeometry x="-3.3703703703703702" width="61.148148148148145" height="43.63636363636363" as="geometry" />
        </mxCell>
        <mxCell id="saF7w043Sqg9dMnj_X5P-167" value="" style="group" vertex="1" connectable="0" parent="saF7w043Sqg9dMnj_X5P-191">
          <mxGeometry x="17.59259259259261" y="196.36363636363635" width="67.4074074074074" height="54.54545454545455" as="geometry" />
        </mxCell>
        <mxCell id="saF7w043Sqg9dMnj_X5P-168" value="" style="shape=datastore;whiteSpace=wrap;html=1;" vertex="1" parent="saF7w043Sqg9dMnj_X5P-167">
          <mxGeometry width="56.17283950617284" height="43.63636363636363" as="geometry" />
        </mxCell>
        <mxCell id="saF7w043Sqg9dMnj_X5P-169" value="&lt;h1 style=&quot;margin-top: 0px;&quot;&gt;&lt;span style=&quot;font-size: 11px; font-weight: 400;&quot;&gt;RawInst&lt;/span&gt;&lt;/h1&gt;" style="text;html=1;whiteSpace=wrap;overflow=hidden;rounded=0;align=center;" vertex="1" parent="saF7w043Sqg9dMnj_X5P-167">
          <mxGeometry x="-3.3703703703703702" width="61.148148148148145" height="43.63636363636363" as="geometry" />
        </mxCell>
        <mxCell id="saF7w043Sqg9dMnj_X5P-117" value="&lt;h1 style=&quot;margin-top: 0px;&quot;&gt;&lt;font style=&quot;font-size: 11px;&quot;&gt;Step 3: Prompt Engineering&lt;/font&gt;&lt;/h1&gt;" style="text;html=1;whiteSpace=wrap;overflow=hidden;rounded=0;" vertex="1" parent="saF7w043Sqg9dMnj_X5P-194">
          <mxGeometry x="2" y="-7.570588235294118" width="160" height="43.63411764705882" as="geometry" />
        </mxCell>
        <mxCell id="saF7w043Sqg9dMnj_X5P-239" style="edgeStyle=orthogonalEdgeStyle;rounded=0;orthogonalLoop=1;jettySize=auto;html=1;exitX=0;exitY=0.5;exitDx=0;exitDy=0;entryX=0.5;entryY=0;entryDx=0;entryDy=0;" edge="1" parent="saF7w043Sqg9dMnj_X5P-194" source="saF7w043Sqg9dMnj_X5P-144" target="saF7w043Sqg9dMnj_X5P-170">
          <mxGeometry relative="1" as="geometry" />
        </mxCell>
        <mxCell id="saF7w043Sqg9dMnj_X5P-224" value="" style="rounded=0;whiteSpace=wrap;html=1;dashed=1;" vertex="1" parent="1">
          <mxGeometry x="370" y="280" width="320" height="150" as="geometry" />
        </mxCell>
        <mxCell id="saF7w043Sqg9dMnj_X5P-244" style="edgeStyle=orthogonalEdgeStyle;rounded=0;orthogonalLoop=1;jettySize=auto;html=1;entryX=1;entryY=0.5;entryDx=0;entryDy=0;" edge="1" parent="1" source="saF7w043Sqg9dMnj_X5P-226" target="saF7w043Sqg9dMnj_X5P-242">
          <mxGeometry relative="1" as="geometry" />
        </mxCell>
        <mxCell id="saF7w043Sqg9dMnj_X5P-226" value="Ollama" style="rounded=1;whiteSpace=wrap;html=1;" vertex="1" parent="1">
          <mxGeometry x="581" y="333" width="76" height="45" as="geometry" />
        </mxCell>
        <mxCell id="saF7w043Sqg9dMnj_X5P-228" style="edgeStyle=orthogonalEdgeStyle;rounded=0;orthogonalLoop=1;jettySize=auto;html=1;entryX=1;entryY=0.5;entryDx=0;entryDy=0;" edge="1" parent="1" source="saF7w043Sqg9dMnj_X5P-170" target="saF7w043Sqg9dMnj_X5P-226">
          <mxGeometry relative="1" as="geometry" />
        </mxCell>
        <mxCell id="saF7w043Sqg9dMnj_X5P-229" style="edgeStyle=orthogonalEdgeStyle;rounded=0;orthogonalLoop=1;jettySize=auto;html=1;entryX=0.5;entryY=0;entryDx=0;entryDy=0;" edge="1" parent="1" source="saF7w043Sqg9dMnj_X5P-88" target="saF7w043Sqg9dMnj_X5P-226">
          <mxGeometry relative="1" as="geometry" />
        </mxCell>
        <mxCell id="saF7w043Sqg9dMnj_X5P-234" value="" style="rounded=0;whiteSpace=wrap;html=1;dashed=1;" vertex="1" parent="1">
          <mxGeometry x="370" y="280" width="142" height="30" as="geometry" />
        </mxCell>
        <mxCell id="saF7w043Sqg9dMnj_X5P-235" value="&lt;h1 style=&quot;margin-top: 0px;&quot;&gt;&lt;font style=&quot;font-size: 11px;&quot;&gt;Step 4: Model Execution&lt;/font&gt;&lt;/h1&gt;" style="text;html=1;whiteSpace=wrap;overflow=hidden;rounded=0;" vertex="1" parent="1">
          <mxGeometry x="371" y="271" width="140" height="40" as="geometry" />
        </mxCell>
        <mxCell id="saF7w043Sqg9dMnj_X5P-240" value="" style="group" vertex="1" connectable="0" parent="1">
          <mxGeometry x="390" y="319" width="140" height="50" as="geometry" />
        </mxCell>
        <mxCell id="saF7w043Sqg9dMnj_X5P-266" value="" style="group" vertex="1" connectable="0" parent="saF7w043Sqg9dMnj_X5P-240">
          <mxGeometry y="13" width="140" height="50" as="geometry" />
        </mxCell>
        <mxCell id="saF7w043Sqg9dMnj_X5P-241" value="" style="shape=datastore;whiteSpace=wrap;html=1;" vertex="1" parent="saF7w043Sqg9dMnj_X5P-266">
          <mxGeometry width="140" height="50" as="geometry" />
        </mxCell>
        <mxCell id="saF7w043Sqg9dMnj_X5P-242" value="&lt;h1 style=&quot;margin-top: 0px;&quot;&gt;&lt;span style=&quot;font-size: 11px; font-weight: 400;&quot;&gt;Analyzed Requirements&lt;/span&gt;&lt;/h1&gt;" style="text;html=1;whiteSpace=wrap;overflow=hidden;rounded=0;align=center;" vertex="1" parent="saF7w043Sqg9dMnj_X5P-266">
          <mxGeometry y="3" width="140" height="40" as="geometry" />
        </mxCell>
        <mxCell id="saF7w043Sqg9dMnj_X5P-245" value="" style="rounded=0;whiteSpace=wrap;html=1;dashed=1;" vertex="1" parent="1">
          <mxGeometry x="10" y="280" width="350" height="150" as="geometry" />
        </mxCell>
        <mxCell id="saF7w043Sqg9dMnj_X5P-248" value="" style="rounded=0;whiteSpace=wrap;html=1;dashed=1;" vertex="1" parent="1">
          <mxGeometry x="11" y="280" width="142" height="30" as="geometry" />
        </mxCell>
        <mxCell id="saF7w043Sqg9dMnj_X5P-252" value="&lt;h1 style=&quot;margin-top: 0px;&quot;&gt;&lt;font style=&quot;font-size: 11px;&quot;&gt;Step 5: Reslts Analysis&lt;/font&gt;&lt;/h1&gt;" style="text;html=1;whiteSpace=wrap;overflow=hidden;rounded=0;" vertex="1" parent="1">
          <mxGeometry x="12" y="271" width="140" height="40" as="geometry" />
        </mxCell>
        <mxCell id="saF7w043Sqg9dMnj_X5P-272" style="edgeStyle=orthogonalEdgeStyle;rounded=0;orthogonalLoop=1;jettySize=auto;html=1;entryX=1;entryY=0.5;entryDx=0;entryDy=0;" edge="1" parent="1" source="saF7w043Sqg9dMnj_X5P-253" target="saF7w043Sqg9dMnj_X5P-270">
          <mxGeometry relative="1" as="geometry" />
        </mxCell>
        <mxCell id="saF7w043Sqg9dMnj_X5P-253" value="Metrics" style="shape=process;whiteSpace=wrap;html=1;backgroundOutline=1;" vertex="1" parent="1">
          <mxGeometry x="150" y="337" width="110" height="35" as="geometry" />
        </mxCell>
        <mxCell id="saF7w043Sqg9dMnj_X5P-261" value="" style="endArrow=none;html=1;rounded=0;entryX=0.5;entryY=1;entryDx=0;entryDy=0;exitX=0.5;exitY=0;exitDx=0;exitDy=0;" edge="1" parent="1" source="saF7w043Sqg9dMnj_X5P-256" target="saF7w043Sqg9dMnj_X5P-253">
          <mxGeometry width="50" height="50" relative="1" as="geometry">
            <mxPoint x="165" y="372" as="sourcePoint" />
            <mxPoint x="215" y="322" as="targetPoint" />
          </mxGeometry>
        </mxCell>
        <mxCell id="saF7w043Sqg9dMnj_X5P-263" value="" style="endArrow=none;html=1;rounded=0;entryX=0.5;entryY=1;entryDx=0;entryDy=0;exitX=0.5;exitY=0;exitDx=0;exitDy=0;" edge="1" parent="1" source="saF7w043Sqg9dMnj_X5P-257" target="saF7w043Sqg9dMnj_X5P-253">
          <mxGeometry width="50" height="50" relative="1" as="geometry">
            <mxPoint x="175" y="382" as="sourcePoint" />
            <mxPoint x="215" y="365" as="targetPoint" />
          </mxGeometry>
        </mxCell>
        <mxCell id="saF7w043Sqg9dMnj_X5P-264" value="" style="endArrow=none;html=1;rounded=0;entryX=0.5;entryY=1;entryDx=0;entryDy=0;exitX=0.25;exitY=0;exitDx=0;exitDy=0;" edge="1" parent="1" source="saF7w043Sqg9dMnj_X5P-259" target="saF7w043Sqg9dMnj_X5P-253">
          <mxGeometry width="50" height="50" relative="1" as="geometry">
            <mxPoint x="185" y="392" as="sourcePoint" />
            <mxPoint x="225" y="375" as="targetPoint" />
          </mxGeometry>
        </mxCell>
        <mxCell id="saF7w043Sqg9dMnj_X5P-265" value="" style="endArrow=none;html=1;rounded=0;entryX=0.5;entryY=1;entryDx=0;entryDy=0;exitX=0.75;exitY=0;exitDx=0;exitDy=0;" edge="1" parent="1" source="saF7w043Sqg9dMnj_X5P-255" target="saF7w043Sqg9dMnj_X5P-253">
          <mxGeometry width="50" height="50" relative="1" as="geometry">
            <mxPoint x="195" y="402" as="sourcePoint" />
            <mxPoint x="235" y="385" as="targetPoint" />
          </mxGeometry>
        </mxCell>
        <mxCell id="saF7w043Sqg9dMnj_X5P-267" value="" style="group" vertex="1" connectable="0" parent="1">
          <mxGeometry x="61" y="390" width="288" height="30" as="geometry" />
        </mxCell>
        <mxCell id="saF7w043Sqg9dMnj_X5P-254" value="" style="group" vertex="1" connectable="0" parent="saF7w043Sqg9dMnj_X5P-267">
          <mxGeometry width="216" height="30" as="geometry" />
        </mxCell>
        <mxCell id="saF7w043Sqg9dMnj_X5P-255" value="F1-Score" style="rounded=1;whiteSpace=wrap;html=1;" vertex="1" parent="saF7w043Sqg9dMnj_X5P-254">
          <mxGeometry width="66" height="30" as="geometry" />
        </mxCell>
        <mxCell id="saF7w043Sqg9dMnj_X5P-256" value="Recall" style="rounded=1;whiteSpace=wrap;html=1;" vertex="1" parent="saF7w043Sqg9dMnj_X5P-254">
          <mxGeometry x="72" width="68" height="30" as="geometry" />
        </mxCell>
        <mxCell id="saF7w043Sqg9dMnj_X5P-257" value="Precision" style="rounded=1;whiteSpace=wrap;html=1;" vertex="1" parent="saF7w043Sqg9dMnj_X5P-254">
          <mxGeometry x="146" width="70" height="30" as="geometry" />
        </mxCell>
        <mxCell id="saF7w043Sqg9dMnj_X5P-259" value="Accuracy" style="rounded=1;whiteSpace=wrap;html=1;" vertex="1" parent="saF7w043Sqg9dMnj_X5P-267">
          <mxGeometry x="222" width="66" height="30" as="geometry" />
        </mxCell>
        <mxCell id="saF7w043Sqg9dMnj_X5P-268" style="edgeStyle=orthogonalEdgeStyle;rounded=0;orthogonalLoop=1;jettySize=auto;html=1;" edge="1" parent="1" source="saF7w043Sqg9dMnj_X5P-242" target="saF7w043Sqg9dMnj_X5P-253">
          <mxGeometry relative="1" as="geometry" />
        </mxCell>
        <mxCell id="saF7w043Sqg9dMnj_X5P-271" value="" style="group" vertex="1" connectable="0" parent="1">
          <mxGeometry x="28" y="334" width="40" height="40" as="geometry" />
        </mxCell>
        <mxCell id="saF7w043Sqg9dMnj_X5P-269" value="" style="ellipse;whiteSpace=wrap;html=1;aspect=fixed;fillColor=#000000;" vertex="1" parent="saF7w043Sqg9dMnj_X5P-271">
          <mxGeometry x="5" y="5" width="30" height="30" as="geometry" />
        </mxCell>
        <mxCell id="saF7w043Sqg9dMnj_X5P-270" value="" style="ellipse;whiteSpace=wrap;html=1;aspect=fixed;fillColor=none;" vertex="1" parent="saF7w043Sqg9dMnj_X5P-271">
          <mxGeometry width="40" height="40" as="geometry" />
        </mxCell>
      </root>
    </mxGraphModel>
  </diagram>
</mxfile>
